<svg id="Layer_1" data-name="Layer 1" xmlns="http://www.w3.org/2000/svg" viewBox="0 0 2564.43 821.11"><defs><style>.cls-1{fill:none;}.cls-2{fill:#c19784;opacity:0.44;}</style></defs><path d="M369.61,208.08H490.2l92.13,250.57H583l92.13-250.57H795.73L663,526.87q-12.19,31.08-31.5,44.92T583,585.63q-29.82,0-48.78-13.84t-31.84-44.24Z"/><path d="M1586.33,581.58V378.28q0-43.89,13.55-77.33t36.58-55.73A154.64,154.64,0,0,1,1690,211.45,181.17,181.17,0,0,1,1754.34,200q42.67,0,75.54,11.82t56.56,31.41l-51.48,77q-9.49-8.11-26.76-16.55t-41-8.44q-33.89,0-51.48,18.57t-17.62,61.12V581.58Z"/><path d="M2240.75,256.37q-27.8-26.67-66.05-41.54T2090.35,200q-45.39,0-84,14.52T1940,255.36a186.34,186.34,0,0,0-43.36,62.81Q1881,354.64,1881,397.87q0,42.56,14.91,78t41,60.79a182.18,182.18,0,0,0,61.65,39.17q35.57,13.83,76.89,13.85,36.59,0,67.41-12.5a143.29,143.29,0,0,0,52.5-36.13l2,40.52h102.3V401.92q0-44.58-15.59-81.72A188.6,188.6,0,0,0,2240.75,256.37Zm-61.31,180a88.82,88.82,0,0,1-20,31.07A90.47,90.47,0,0,1,2129,487.36a102.48,102.48,0,0,1-38.62,7.09,105,105,0,0,1-38.95-7.09,89.6,89.6,0,0,1-30.82-19.92,88,88,0,0,1-20-31.41,113.39,113.39,0,0,1-7.11-40.86q0-22.29,7.11-40.53a92.15,92.15,0,0,1,20-31.4A88,88,0,0,1,2051.06,303a102.6,102.6,0,0,1,38.62-7.09q21.68,0,39.29,7.09a88.15,88.15,0,0,1,30.48,20.27,91.69,91.69,0,0,1,20,31.74,113.43,113.43,0,0,1,7.11,40.86Q2186.55,418.13,2179.44,436.37Z"/><path d="M1222.62,376.22h-.08v-3.71C1222.54,373.76,1222.59,375,1222.62,376.22Z"/><path d="M1222.62,95.73V209.34a9.2,9.2,0,0,1-.08,1.17V94.71A8.59,8.59,0,0,1,1222.62,95.73Z"/><rect x="845.17" y="208.08" width="111.78" height="373.5"/><path d="M900.72,61.51Q875,61.51,858,78.4t-16.93,41.87q0,24.31,16.93,41.2t42.68,16.89q25.74,0,42.68-16.89t16.94-41.2q0-25-16.94-41.87T900.72,61.51Z"/><path class="cls-1" d="M1314.16,303.41c1.42-.05,2.86-.09,4.31-.09C1317,303.32,1315.58,303.35,1314.16,303.41Z"/><path class="cls-1" d="M1413.18,422.21c1.62-5.46,2.44-10.92,2.44-19.62,0-2.31-.08-4.59-.19-6.84,0,1.14.07,2.28.07,3.44A111.32,111.32,0,0,1,1413.18,422.21Z"/><path class="cls-1" d="M1318.74,303.31h0Z"/><path d="M1513.17,321.88q-14.91-35.46-41-60.79a182.39,182.39,0,0,0-61.64-39.17q-35.57-13.83-76.89-13.85a197.78,197.78,0,0,0-23.62,1.41v94.14l1.52-.08c.87-.05,1.73-.1,2.61-.13,1.42-.06,2.86-.09,4.31-.09h.54q21.48,0,39,6.8A86.44,86.44,0,0,1,1408.39,360a103.68,103.68,0,0,1,7,35.75c.11,2.25.19,4.53.19,6.84,0,8-.69,13.22-2,18.25-.25.92-.49,1.84-.7,2.77a90.51,90.51,0,0,1-4.48,14.45,84.89,84.89,0,0,1-20,29.8A90.83,90.83,0,0,1,1358,487a106,106,0,0,1-38.57,6.81,108.73,108.73,0,0,1-38.92-6.81,90,90,0,0,1-30.79-19.11,84.1,84.1,0,0,1-20-30.12,102.35,102.35,0,0,1-7-33.31h-.23V94.71a9.64,9.64,0,0,0-15.27-6.77l-97.86,71.57-86.49,63.26a9.66,9.66,0,0,0-3.95,7.79V344.17a9.65,9.65,0,0,0,15.35,7.79L1109.41,297V367.1c0,29.72,5.19,77.6,15.58,102.36a188.24,188.24,0,0,0,43.36,63.83q27.76,26.69,66.39,41.53t84,14.86q46.07,0,84.34-14.52t66.06-40.86a186.5,186.5,0,0,0,43.35-62.82c10.39-24.31,15.58-42.77,15.58-71.59Q1528.07,357.34,1513.17,321.88Z"/><path d="M1311.55,303.54c.87-.05,1.73-.1,2.61-.13C1313.28,303.44,1312.42,303.49,1311.55,303.54Z"/><path class="cls-2" d="M1311.55,303.54c.87-.05,1.73-.1,2.61-.13C1313.28,303.44,1312.42,303.49,1311.55,303.54Z"/><path d="M1318.72,303.31h0Z"/><path class="cls-2" d="M1318.72,303.31h0Z"/><path d="M1365.23,400.62l-74.84,42.31a4.44,4.44,0,0,1-6.65-3.76V354.55a4.44,4.44,0,0,1,6.65-3.76l11.65,6.58,63.19,35.73A4.29,4.29,0,0,1,1365.23,400.62Z"/></svg>