<svg id="Layer_1" data-name="Layer 1" xmlns="http://www.w3.org/2000/svg" viewBox="0 0 2518.47 747.57"><defs><style>.cls-1{fill:none;}.cls-2{fill:#c19784;opacity:0.44;}</style></defs><path d="M1182.79,412.13h-.08v-3.71C1182.71,409.67,1182.76,410.9,1182.79,412.13Z"/><path d="M1182.79,131.64V245.25a9.2,9.2,0,0,1-.08,1.17V130.62A8.59,8.59,0,0,1,1182.79,131.64Z"/><path class="cls-1" d="M1274.33,339.32c1.42-.05,2.86-.09,4.31-.09C1277.19,339.23,1275.75,339.26,1274.33,339.32Z"/><path class="cls-1" d="M1373.35,458.13c1.62-5.47,2.44-10.93,2.44-19.62,0-2.32-.08-4.59-.19-6.85,0,1.15.07,2.28.07,3.44A111.48,111.48,0,0,1,1373.35,458.13Z"/><path class="cls-1" d="M1278.91,339.23h0Z"/><path d="M1473.34,357.8q-14.91-35.46-41-60.79a182.39,182.39,0,0,0-61.64-39.17Q1335.15,244,1293.82,244a197.78,197.78,0,0,0-23.62,1.41v94.14c.5,0,1-.06,1.52-.08.87,0,1.73-.11,2.61-.14,1.42-.06,2.86-.09,4.31-.09h.54q21.48,0,39,6.8a86.44,86.44,0,0,1,50.42,49.88,103.68,103.68,0,0,1,7,35.75c.11,2.26.19,4.53.19,6.85,0,8-.69,13.22-2,18.25-.25.91-.49,1.83-.7,2.76a90.19,90.19,0,0,1-4.48,14.45,84.84,84.84,0,0,1-20,29.81,91.15,91.15,0,0,1-30.46,19.11,106.21,106.21,0,0,1-38.57,6.8,108.94,108.94,0,0,1-38.92-6.8,90.27,90.27,0,0,1-30.79-19.11,84.14,84.14,0,0,1-20-30.13,102.35,102.35,0,0,1-7-33.31h-.23V130.62a9.64,9.64,0,0,0-15.27-6.77l-97.86,71.57-86.49,63.26a9.66,9.66,0,0,0-4,7.79V380.08a9.65,9.65,0,0,0,15.35,7.79l75.09-54.93V403c0,29.72,5.19,77.61,15.58,102.37a188.24,188.24,0,0,0,43.36,63.83q27.76,26.68,66.39,41.53t84,14.86q46.06,0,84.34-14.52t66.06-40.86a186.5,186.5,0,0,0,43.35-62.82c10.39-24.31,15.58-42.77,15.58-71.59Q1488.24,393.26,1473.34,357.8Z"/><path d="M1271.72,339.46c.87,0,1.73-.11,2.61-.14C1273.45,339.35,1272.59,339.41,1271.72,339.46Z"/><path class="cls-2" d="M1271.72,339.46c.87,0,1.73-.11,2.61-.14C1273.45,339.35,1272.59,339.41,1271.72,339.46Z"/><path d="M1278.89,339.23h0Z"/><path class="cls-2" d="M1278.89,339.23h0Z"/><path d="M1325.41,436.53l-74.85,42.31a4.44,4.44,0,0,1-6.65-3.76V390.46a4.44,4.44,0,0,1,6.65-3.76l11.65,6.58,63.2,35.73A4.29,4.29,0,0,1,1325.41,436.53Z"/></svg>